HIERARCHY
ROOT Root
{
  OFFSET 0.0 0.0 0.0
  CHANNELS 6 Xposition Yposition Zposition Zrotation Yrotation Xrotation
  JOINT Hips
  {
    OFFSET 0.0 100.0 0.0
    CHANNELS 6 Xposition Yposition Zposition Zrotation Yrotation Xrotation
    JOINT Spine1
    {
      OFFSET 5.003913 -0.037094 -0.013727
      CHANNELS 3 Zrotation Yrotation Xrotation
      JOINT Spine2
      {
        OFFSET 7.125363 -1e-06 0.0
        CHANNELS 3 Zrotation Yrotation Xrotation
        JOINT Chest
        {
          OFFSET 7.594027 1e-06 0.0
          CHANNELS 3 Zrotation Yrotation Xrotation
          JOINT Neck1
          {
            OFFSET 26.313086 -0.460272 -0.181672
            CHANNELS 3 Zrotation Yrotation Xrotation
            JOINT Neck2
            {
              OFFSET 8.045911 0.0 0.0
              CHANNELS 3 Zrotation Yrotation Xrotation
              JOINT Head
              {
                OFFSET 6.432774 0.0 0.0
                CHANNELS 3 Zrotation Yrotation Xrotation
                JOINT HeadEnd
                {
                  OFFSET 16.169773 0.06451 0.00362
                  CHANNELS 3 Zrotation Yrotation Xrotation
                }
                JOINT Jaw
                {
                  OFFSET 0.108741 3.12938 0.002639
                  CHANNELS 3 Zrotation Yrotation Xrotation
                }
                JOINT LeftEye
                {
                  OFFSET 4.45173 8.166359 3.206392
                  CHANNELS 3 Zrotation Yrotation Xrotation
                }
                JOINT RightEye
                {
                  OFFSET 4.436895 8.135758 -3.222429
                  CHANNELS 3 Zrotation Yrotation Xrotation
                }
              }
            }
          }
          JOINT LeftShoulder
          {
            OFFSET 23.218927 5.195579 1.621656
            CHANNELS 3 Zrotation Yrotation Xrotation
            JOINT LeftArm
            {
              OFFSET 15.902118 2e-06 -2e-06
              CHANNELS 3 Zrotation Yrotation Xrotation
              JOINT LeftForeArm
              {
                OFFSET 28.739307 0.0 -1e-06
                CHANNELS 3 Zrotation Yrotation Xrotation
                JOINT LeftHand
                {
                  OFFSET 27.093981 -4e-06 0.0
                  CHANNELS 3 Zrotation Yrotation Xrotation
                  JOINT LeftHandThumb1
                  {
                    OFFSET 2.276781 3.380274 0.83384
                    CHANNELS 3 Zrotation Yrotation Xrotation
                    JOINT LeftHandThumb2
                    {
                      OFFSET 4.705309 -1e-06 -1e-06
                      CHANNELS 3 Zrotation Yrotation Xrotation
                      JOINT LeftHandThumb3
                      {
                        OFFSET 2.798515 0.0 3e-06
                        CHANNELS 3 Zrotation Yrotation Xrotation
                        JOINT LeftHandThumbEnd
                        {
                          OFFSET 3.180793 4e-06 -4e-06
                          CHANNELS 3 Zrotation Yrotation Xrotation
                        }
                      }
                    }
                  }
                  JOINT LeftHandIndex1
                  {
                    OFFSET 3.247786 2.352677 0.137192
                    CHANNELS 3 Zrotation Yrotation Xrotation
                    JOINT LeftHandIndex2
                    {
                      OFFSET 6.367095 1e-06 0.0
                      CHANNELS 3 Zrotation Yrotation Xrotation
                      JOINT LeftHandIndex3
                      {
                        OFFSET 3.662364 0.0 0.0
                        CHANNELS 3 Zrotation Yrotation Xrotation
                        JOINT LeftHandIndex4
                        {
                          OFFSET 2.329242 4e-06 -4e-06
                          CHANNELS 3 Zrotation Yrotation Xrotation
                          JOINT LeftHandIndexEnd
                          {
                            OFFSET 2.767823 1e-06 0.0
                            CHANNELS 3 Zrotation Yrotation Xrotation
                          }
                        }
                      }
                    }
                  }
                  JOINT LeftHandMiddle1
                  {
                    OFFSET 3.163612 0.945023 -0.406112
                    CHANNELS 3 Zrotation Yrotation Xrotation
                    JOINT LeftHandMiddle2
                    {
                      OFFSET 6.276789 3e-06 0.0
                      CHANNELS 3 Zrotation Yrotation Xrotation
                      JOINT LeftHandMiddle3
                      {
                        OFFSET 4.35652 -1e-06 4e-06
                        CHANNELS 3 Zrotation Yrotation Xrotation
                        JOINT LeftHandMiddle4
                        {
                          OFFSET 2.996877 0.0 8e-06
                          CHANNELS 3 Zrotation Yrotation Xrotation
                          JOINT LeftHandMiddleEnd
                          {
                            OFFSET 2.323256 3e-06 -4e-06
                            CHANNELS 3 Zrotation Yrotation Xrotation
                          }
                        }
                      }
                    }
                  }
                  JOINT LeftHandRing1
                  {
                    OFFSET 2.882606 -0.309162 0.107445
                    CHANNELS 3 Zrotation Yrotation Xrotation
                    JOINT LeftHandRing2
                    {
                      OFFSET 6.033198 0.0 4e-06
                      CHANNELS 3 Zrotation Yrotation Xrotation
                      JOINT LeftHandRing3
                      {
                        OFFSET 4.350578 3e-06 0.0
                        CHANNELS 3 Zrotation Yrotation Xrotation
                        JOINT LeftHandRing4
                        {
                          OFFSET 2.651321 2e-06 -7e-06
                          CHANNELS 3 Zrotation Yrotation Xrotation
                          JOINT LeftHandRingEnd
                          {
                            OFFSET 1.937663 1e-06 -4e-06
                            CHANNELS 3 Zrotation Yrotation Xrotation
                          }
                        }
                      }
                    }
                  }
                  JOINT LeftHandPinky1
                  {
                    OFFSET 2.865315 -1.525436 0.575687
                    CHANNELS 3 Zrotation Yrotation Xrotation
                    JOINT LeftHandPinky2
                    {
                      OFFSET 5.54936 1e-06 -8e-06
                      CHANNELS 3 Zrotation Yrotation Xrotation
                      JOINT LeftHandPinky3
                      {
                        OFFSET 3.070974 0.0 -4e-06
                        CHANNELS 3 Zrotation Yrotation Xrotation
                        JOINT LeftHandPinky4
                        {
                          OFFSET 1.549672 1e-06 0.0
                          CHANNELS 3 Zrotation Yrotation Xrotation
                          JOINT LeftHandPinkyEnd
                          {
                            OFFSET 1.952123 0.0 0.0
                            CHANNELS 3 Zrotation Yrotation Xrotation
                          }
                        }
                      }
                    }
                  }
                }
              }
            }
          }
          JOINT RightShoulder
          {
            OFFSET 23.161716 5.296122 -1.380114
            CHANNELS 3 Zrotation Yrotation Xrotation
            JOINT RightArm
            {
              OFFSET -16.027195 -2e-06 1.1e-05
              CHANNELS 3 Zrotation Yrotation Xrotation
              JOINT RightForeArm
              {
                OFFSET -28.736639 4e-06 2e-06
                CHANNELS 3 Zrotation Yrotation Xrotation
                JOINT RightHand
                {
                  OFFSET -27.133619 6e-06 0.0
                  CHANNELS 3 Zrotation Yrotation Xrotation
                  JOINT RightHandThumb1
                  {
                    OFFSET -2.274328 -3.351035 -0.83067
                    CHANNELS 3 Zrotation Yrotation Xrotation
                    JOINT RightHandThumb2
                    {
                      OFFSET -4.703594 -3e-06 2e-06
                      CHANNELS 3 Zrotation Yrotation Xrotation
                      JOINT RightHandThumb3
                      {
                        OFFSET -2.794935 -4e-06 -3e-06
                        CHANNELS 3 Zrotation Yrotation Xrotation
                        JOINT RightHandThumbEnd
                        {
                          OFFSET -3.183852 4e-06 1e-06
                          CHANNELS 3 Zrotation Yrotation Xrotation
                        }
                      }
                    }
                  }
                  JOINT RightHandIndex1
                  {
                    OFFSET -3.253496 -2.33755 -0.127667
                    CHANNELS 3 Zrotation Yrotation Xrotation
                    JOINT RightHandIndex2
                    {
                      OFFSET -6.344434 0.0 0.0
                      CHANNELS 3 Zrotation Yrotation Xrotation
                      JOINT RightHandIndex3
                      {
                        OFFSET -3.654871 0.0 -8e-06
                        CHANNELS 3 Zrotation Yrotation Xrotation
                        JOINT RightHandIndex4
                        {
                          OFFSET -2.327586 -1e-06 0.0
                          CHANNELS 3 Zrotation Yrotation Xrotation
                          JOINT RightHandIndexEnd
                          {
                            OFFSET -2.770001 3e-06 8e-06
                            CHANNELS 3 Zrotation Yrotation Xrotation
                          }
                        }
                      }
                    }
                  }
                  JOINT RightHandMiddle1
                  {
                    OFFSET -3.168223 -0.944764 0.411762
                    CHANNELS 3 Zrotation Yrotation Xrotation
                    JOINT RightHandMiddle2
                    {
                      OFFSET -6.266691 -1e-06 -4e-06
                      CHANNELS 3 Zrotation Yrotation Xrotation
                      JOINT RightHandMiddle3
                      {
                        OFFSET -4.348901 0.0 0.0
                        CHANNELS 3 Zrotation Yrotation Xrotation
                        JOINT RightHandMiddle4
                        {
                          OFFSET -3.00024 2e-06 -4e-06
                          CHANNELS 3 Zrotation Yrotation Xrotation
                          JOINT RightHandMiddleEnd
                          {
                            OFFSET -2.321477 -4e-06 -4e-06
                            CHANNELS 3 Zrotation Yrotation Xrotation
                          }
                        }
                      }
                    }
                  }
                  JOINT RightHandRing1
                  {
                    OFFSET -2.885654 0.293261 -0.119232
                    CHANNELS 3 Zrotation Yrotation Xrotation
                    JOINT RightHandRing2
                    {
                      OFFSET -6.032835 -1e-06 -4e-06
                      CHANNELS 3 Zrotation Yrotation Xrotation
                      JOINT RightHandRing3
                      {
                        OFFSET -4.33881 0.0 -4e-06
                        CHANNELS 3 Zrotation Yrotation Xrotation
                        JOINT RightHandRing4
                        {
                          OFFSET -2.654903 -4e-06 -4e-06
                          CHANNELS 3 Zrotation Yrotation Xrotation
                          JOINT RightHandRingEnd
                          {
                            OFFSET -1.935122 0.0 4e-06
                            CHANNELS 3 Zrotation Yrotation Xrotation
                          }
                        }
                      }
                    }
                  }
                  JOINT RightHandPinky1
                  {
                    OFFSET -2.866241 1.503904 -0.60527
                    CHANNELS 3 Zrotation Yrotation Xrotation
                    JOINT RightHandPinky2
                    {
                      OFFSET -5.553177 -2e-06 0.0
                      CHANNELS 3 Zrotation Yrotation Xrotation
                      JOINT RightHandPinky3
                      {
                        OFFSET -3.062664 -1e-06 -4e-06
                        CHANNELS 3 Zrotation Yrotation Xrotation
                        JOINT RightHandPinky4
                        {
                          OFFSET -1.546529 2e-06 4e-06
                          CHANNELS 3 Zrotation Yrotation Xrotation
                          JOINT RightHandPinkyEnd
                          {
                            OFFSET -1.952341 0.0 -4e-06
                            CHANNELS 3 Zrotation Yrotation Xrotation
                          }
                        }
                      }
                    }
                  }
                }
              }
            }
          }
        }
      }
    }
    JOINT LeftLeg
    {
      OFFSET -8.443107 2.567604 10.043214
      CHANNELS 3 Zrotation Yrotation Xrotation
      JOINT LeftShin
      {
        OFFSET 43.229198 1e-06 -1e-06
        CHANNELS 3 Zrotation Yrotation Xrotation
        JOINT LeftFoot
        {
          OFFSET 42.298611 1e-06 1e-06
          CHANNELS 3 Zrotation Yrotation Xrotation
          JOINT LeftToeBase
          {
            OFFSET 14.165858 1e-06 0.0
            CHANNELS 3 Zrotation Yrotation Xrotation
            JOINT LeftToeEnd
            {
              OFFSET 6.7141 -0.234461 0.0
              CHANNELS 3 Zrotation Yrotation Xrotation
            }
          }
        }
      }
    }
    JOINT RightLeg
    {
      OFFSET -8.303923 2.592729 -10.047278
      CHANNELS 3 Zrotation Yrotation Xrotation
      JOINT RightShin
      {
        OFFSET -43.369682 0.0 1e-06
        CHANNELS 3 Zrotation Yrotation Xrotation
        JOINT RightFoot
        {
          OFFSET -42.260784 4e-06 2e-06
          CHANNELS 3 Zrotation Yrotation Xrotation
          JOINT RightToeBase
          {
            OFFSET -14.222245 -2e-06 -1e-06
            CHANNELS 3 Zrotation Yrotation Xrotation
            JOINT RightToeEnd
            {
              OFFSET -6.660062 0.232574 -2e-06
              CHANNELS 3 Zrotation Yrotation Xrotation
            }
          }
        }
      }
    }
  }
}
MOTION
Frames: 4
Frame Time: 0.03333333333333333
0.0 0.0 0.0 0.0 -0.0 0.0 2.892467 98.482437 1.73509 89.440208 5.855029 96.66272 4.862112 0.780005 0.003866 -9.526811 -0.88475 -0.632763 13.287501 -0.717203 -2.219065 -1.3403 7.469104 2.871616 -2.407623 -1.03297 -2.235011 -41.97369 0.405396 -4.29329 6e-06 0.0 -0.0 -0.071735 -0.042207 -0.00695 0.080202 -0.157579 -0.015535 0.143966 0.061845 0.017802 -58.404873 -79.919662 75.60981 29.962049 -54.765545 18.387041 47.466175 -0.055224 0.757948 -0.059845 -20.016756 25.592321 17.63658 -26.322721 52.411148 -19.466496 -14.395527 29.410276 5e-06 -8.774763 -8e-06 16.116476 -17.89098 6.042516 -0.609778 -1.795641 -3.889317 -4.807068 -11.046743 -2.937833 -1.1e-05 -20.975883 3.2e-05 -5.019953 -25.033394 -4.031842 5e-06 -1e-06 0.0 -10.634499 -5.686944 -3.565588 10.573199 -17.922844 -3.113853 -1e-05 -13.821123 2.6e-05 -0.501824 -31.181295 -4.026939 -11.575501 -60.102798 7.613013 -13.982663 -7.150167 -2.875046 13.772646 -8.401438 -3.218208 0.347673 -34.21133 0.771731 -0.963065 -17.733288 2.621049 -1e-06 2e-06 -1e-06 -17.346354 -20.095123 -4.201783 21.757446 -1.638362 3.866428 -1e-06 -6.338789 1.3e-05 -1.697601 -22.59161 -6.193954 -1e-06 -3e-06 -1e-06 108.157753 -81.610649 86.174576 16.678652 -52.688019 10.155662 50.254887 0.071481 0.312833 6.086569 -3.066768 4.977055 22.182125 -20.375929 49.933308 -16.701744 -16.743498 28.476486 -3e-06 -12.690572 -4e-06 16.017117 -17.71488 2.395407 -0.105922 -1.513852 -4.27588 -5.039035 -5.612858 -2.953549 2e-06 -11.020509 8e-06 -6.111282 -15.895315 -3.840472 0.0 -0.0 3e-06 -10.28336 -5.680275 -4.341841 11.02827 -11.30238 -2.372615 -1.384273 -14.238546 -6.320105 -0.625447 -26.924152 -3.82757 -4.700531 -49.345158 -3.599704 -13.708513 -7.363467 -3.720944 18.141109 -14.052711 -3.242648 -4e-06 -18.787252 2.5e-05 -0.429719 -8.45605 2.555525 2e-06 -2e-06 1e-06 -15.923521 -20.09445 -5.473584 30.419146 -7.190811 1.735945 1e-06 -8.162917 1.1e-05 -1.861912 -22.861458 -6.167903 1e-06 -4e-06 -1e-06 177.572906 -16.119392 -18.697159 23.904165 -0.060863 0.724643 -80.315407 17.662691 -10.349892 -6.182654 1.453748 2.050867 -1.000001 -0.0 0.0 4.640263 -9.268703 -23.306007 17.753035 0.038956 0.455681 -83.741325 2.917105 -10.994683 -5.880926 0.625223 1.647888 -1.000004 2e-06 0.0 
0.0 0.0 0.0 0.0 -0.0 0.0 2.801179 98.739052 0.574803 89.016251 4.422026 96.635292 6.038516 0.817859 0.082927 -9.203393 -0.847015 -0.537921 13.503524 -0.671544 -1.76163 -0.00218 6.967182 3.040094 -2.459427 -0.688638 -2.271719 -42.904816 0.206574 -4.33094 5e-06 -0.0 0.0 -0.061347 -0.056492 -0.032821 0.031782 -0.196247 -0.05489 0.09402 0.073805 0.006432 -53.868938 -78.411324 70.807106 26.592588 -54.601528 17.778708 53.934074 0.003366 0.877715 -2.161701 -19.830412 24.516706 17.636618 -26.322756 52.411144 -19.466619 -14.395671 29.410364 -1.7e-05 -8.774837 1e-06 15.942526 -17.878908 6.184901 -0.609772 -1.795641 -3.889321 -4.80707 -11.046746 -2.937834 4.8e-05 -20.975933 3.2e-05 -5.019949 -25.033447 -4.031828 6e-06 3e-06 2e-06 -10.634521 -5.686928 -3.565578 10.573305 -17.922886 -3.113885 2.4e-05 -13.821157 3.3e-05 -0.501774 -31.181406 -4.026902 -11.6113 -59.990967 7.582426 -13.982701 -7.150145 -2.875033 13.772754 -8.401478 -3.218243 0.347771 -34.211433 0.771737 -0.963034 -17.733353 2.621091 -1e-06 2e-06 1e-06 -17.346386 -20.095095 -4.201772 21.757566 -1.638416 3.866407 1.4e-05 -6.3388 1.8e-05 -1.697565 -22.59166 -6.193943 2e-06 -1e-06 -1e-06 119.562599 -80.558372 75.394814 14.713051 -54.033817 9.990743 51.839016 0.158144 0.197129 6.532376 -3.075486 4.561697 22.181988 -20.375763 49.932972 -16.701674 -16.743368 28.476271 -3.5e-05 -12.690454 -8e-06 16.067568 -17.669672 2.412127 -0.105918 -1.513845 -4.275853 -5.038985 -5.612811 -2.953535 3.3e-05 -11.020404 -3e-06 -6.111161 -15.895121 -3.840442 -0.0 -1e-06 -1e-06 -10.283291 -5.68023 -4.341816 11.028213 -11.302319 -2.372602 -1.384218 -14.238412 -6.320057 -0.625361 -26.923864 -3.827522 -4.63334 -49.22197 -3.645944 -13.708418 -7.363401 -3.720928 18.141001 -14.052642 -3.242635 5.2e-05 -18.787071 9e-06 -0.429686 -8.455955 2.55549 3e-06 0.0 1e-06 -15.923379 -20.094301 -5.473572 30.418924 -7.190824 1.73591 2.3e-05 -8.162842 3e-06 -1.86182 -22.861181 -6.167837 -1e-06 -3e-06 2e-06 175.201706 -16.191118 -18.263718 23.562227 -0.073428 0.705094 -79.201859 16.974989 -9.694576 -6.291113 1.503389 2.061871 -0.999998 0.0 -0.0 2.048418 -9.06265 -23.34026 18.042368 0.056268 0.448738 -82.898499 2.88251 -10.602674 -6.012014 0.606641 1.643034 -1.000003 1e-06 1e-06 
0.0 0.0 0.0 0.0 -0.0 0.0 2.731041 98.672775 -0.875782 88.636307 3.224366 96.634926 7.641906 0.809598 0.158061 -8.757088 -0.801453 -0.444774 14.067272 -0.611434 -1.415663 1.931551 6.395711 3.094172 -2.485942 -0.358837 -2.081111 -44.202499 -0.036421 -4.160199 5e-06 -0.0 -0.0 -0.03362 -0.041917 -0.039447 0.006665 -0.204809 -0.082607 0.059717 0.11375 0.021443 -51.688885 -76.959801 68.590599 23.876341 -54.030094 16.211758 59.503189 -0.231415 0.885551 -3.532708 -19.748461 22.46036 17.636719 -26.322802 52.411324 -19.466782 -14.395643 29.410511 2e-06 -8.774881 -7e-06 15.817778 -17.895077 6.236519 -0.609778 -1.795665 -3.88934 -4.807117 -11.04688 -2.937868 7e-06 -20.976185 -9e-06 -5.020001 -25.033831 -4.031931 6e-06 1e-06 1e-06 -10.634583 -5.687005 -3.565595 10.573328 -17.923059 -3.113922 6e-06 -13.821317 -5e-06 -0.501757 -31.181864 -4.027074 -11.553691 -59.797207 7.44808 -13.982778 -7.15024 -2.875049 13.7728 -8.40154 -3.218258 0.347752 -34.211864 0.77164 -0.963024 -17.733566 2.621043 -1e-06 -1e-06 -0.0 -17.346512 -20.095331 -4.201787 21.757677 -1.638379 3.866453 1e-06 -6.338873 -4e-06 -1.697588 -22.592003 -6.194093 1e-06 -4e-06 -4e-06 123.902977 -79.418884 72.07122 13.133212 -55.002098 9.270144 55.215176 0.292431 0.090223 6.613469 -3.889638 4.203674 22.182135 -20.375904 49.933334 -16.701836 -16.743584 28.476557 3e-06 -12.690645 0.0 16.076534 -17.708954 2.510985 -0.105917 -1.513857 -4.275887 -5.039054 -5.612881 -2.953552 -4e-06 -11.020554 -0.0 -6.111333 -15.895404 -3.840483 0.0 -1e-06 -0.0 -10.283393 -5.680301 -4.341834 11.028315 -11.302414 -2.37264 -1.384279 -14.238614 -6.320129 -0.62544 -26.924297 -3.827619 -4.632644 -49.278355 -3.670239 -13.708556 -7.363494 -3.720932 18.14119 -14.05275 -3.242684 -3e-06 -18.787323 -2e-06 -0.429713 -8.456083 2.555513 2e-06 -3e-06 0.0 -15.923587 -20.094522 -5.473569 30.419289 -7.190814 1.735924 -2e-06 -8.162944 -4e-06 -1.861913 -22.861572 -6.167976 1e-06 -3e-06 2e-06 172.385712 -16.429752 -17.646555 24.321394 -0.074056 0.704552 -78.69355 16.496662 -9.108174 -6.208071 1.542711 2.075006 -1.000004 2e-06 1e-06 -1.23493 -9.346077 -23.547356 20.154839 0.068853 0.447665 -82.760284 3.20193 -10.153416 -6.017836 0.598124 1.643309 -1.000009 1e-06 1e-06 
0.0 0.0 0.0 0.0 -0.0 0.0 2.678312 98.282494 -2.620058 88.379974 2.004926 96.676353 9.579559 0.700943 0.222912 -8.226231 -0.755715 -0.379316 14.936227 -0.564881 -1.162435 4.214551 5.934363 2.991008 -2.506696 -0.178004 -1.738529 -45.861572 -0.266835 -3.792078 5e-06 0.0 0.0 -0.002525 -0.013339 -0.027905 0.005391 -0.183808 -0.083019 0.045357 0.152005 0.043924 -50.968147 -75.708809 68.058434 21.7628 -53.173515 14.044559 63.507427 -0.470367 0.852399 -4.168936 -19.057178 20.176834 17.636684 -26.322676 52.411102 -19.466757 -14.395575 29.410398 -0.0 -8.774847 -8e-06 15.710587 -17.91049 6.233521 -0.609776 -1.795664 -3.889328 -4.807101 -11.046866 -2.937864 1.5e-05 -20.976156 -2.9e-05 -5.019962 -25.033791 -4.031932 6e-06 2e-06 1e-06 -10.634554 -5.686996 -3.565587 10.573296 -17.923037 -3.113919 1.3e-05 -13.821295 -2.2e-05 -0.501721 -31.181808 -4.027092 -11.460203 -59.597855 7.311258 -13.982739 -7.15023 -2.875036 13.772755 -8.401534 -3.21825 0.347779 -34.211815 0.771582 -0.963001 -17.73354 2.62101 1e-06 -1e-06 -1e-06 -17.346462 -20.095308 -4.201774 21.757605 -1.638372 3.866442 3e-06 -6.338861 -1.2e-05 -1.697565 -22.591972 -6.194096 4e-06 -1e-06 -4e-06 123.316048 -78.525528 73.838509 11.860911 -55.474895 8.153617 59.681469 0.343651 -0.066257 6.286656 -5.286525 3.952327 22.182127 -20.37583 49.933311 -16.701887 -16.743591 28.476597 6e-06 -12.690665 6e-06 16.042803 -17.808821 2.60484 -0.105915 -1.51386 -4.275886 -5.039066 -5.612899 -2.953561 -3e-06 -11.020582 -1.3e-05 -6.111339 -15.895468 -3.840512 1e-06 -0.0 -1e-06 -10.283401 -5.680313 -4.341832 11.028327 -11.302428 -2.372658 -1.38428 -14.238654 -6.320159 -0.625418 -26.924383 -3.827673 -4.673375 -49.374744 -3.78216 -13.708571 -7.363512 -3.720925 18.141212 -14.052764 -3.242706 1e-06 -18.787359 -3.6e-05 -0.429709 -8.456102 2.555503 2e-06 -2e-06 -3e-06 -15.923612 -20.094553 -5.473569 30.419334 -7.190817 1.73592 -2e-06 -8.162957 -1.8e-05 -1.861898 -22.861637 -6.168036 -1e-06 -2e-06 1e-06 168.90358 -16.688122 -16.950123 26.104658 -0.050289 0.711467 -78.753143 16.267731 -8.604967 -5.942129 1.566781 2.088745 -1.0 -0.0 0.0 -5.355599 -10.207998 -23.829782 23.777151 0.091774 0.427712 -83.104004 3.801276 -9.649362 -5.889606 0.587772 1.645083 -1.000002 1e-06 -0.0 
